<?xml version="1.0" encoding="utf-8"?>
<!-- Generator: Adobe Illustrator 19.0.0, SVG Export Plug-In . SVG Version: 6.00 Build 0)  -->
<svg version="1.1" id="Capa_1" xmlns="http://www.w3.org/2000/svg" xmlns:xlink="http://www.w3.org/1999/xlink" x="0px" y="0px"
	 viewBox="3.7 6.9 52.5 14.7" style="enable-background:new 3.7 6.9 52.5 14.7;" xml:space="preserve">
<style type="text/css">
	.st0{fill:#4D4D4D;}
	.st1{fill:#ED1C24;}
	.st2{fill:#E6E6E6;}
	.st3{fill:#0071BC;}
	.st4{fill:#FFFFFF;}
</style>
<g id="XMLID_130_">
	<polygon id="XMLID_14_" class="st0" points="15.1,21.6 52,21.6 56.2,6.9 19.3,6.9 	"/>
	<polygon id="XMLID_16_" class="st1" points="11.3,21.6 15.2,21.6 19.4,6.9 15.6,6.9 	"/>
	<polygon id="XMLID_26_" class="st2" points="7.5,21.6 11.3,21.6 15.6,6.9 11.8,6.9 	"/>
	<polygon id="XMLID_35_" class="st3" points="3.7,21.6 7.5,21.6 11.8,6.9 7.9,6.9 	"/>
</g>
<g id="XMLID_1_">
	<g id="XMLID_72_">
		<path id="XMLID_78_" class="st4" d="M26.2,10.8c-0.7,0-1.3,0.3-1.7,0.8c-0.4,0.6-0.6,1.3-0.6,2.3c0,2.1,0.8,3.1,2.3,3.1
			c0.7,0,1.4-0.2,2.4-0.5v1.7c-0.8,0.3-1.6,0.5-2.6,0.5c-1.3,0-2.4-0.4-3.1-1.2c-0.7-0.8-1.1-2-1.1-3.5c0-1,0.2-1.8,0.5-2.5
			c0.4-0.7,0.9-1.3,1.5-1.7c0.7-0.4,1.4-0.6,2.3-0.6s1.8,0.2,2.7,0.7l-0.6,1.6c-0.3-0.2-0.7-0.3-1-0.4S26.5,10.8,26.2,10.8z"/>
		<path id="XMLID_76_" class="st4" d="M34.1,13.4h3.7v4.8c-0.6,0.2-1.2,0.3-1.7,0.4s-1.1,0.1-1.6,0.1c-1.4,0-2.5-0.4-3.2-1.2
			c-0.7-0.8-1.1-2-1.1-3.5s0.4-2.7,1.3-3.5s2-1.3,3.6-1.3c1,0,1.9,0.2,2.8,0.6l-0.7,1.6c-0.7-0.3-1.4-0.5-2.1-0.5
			c-0.8,0-1.5,0.3-2,0.9c-0.5,0.6-0.8,1.3-0.8,2.3s0.2,1.8,0.6,2.3c0.4,0.5,1,0.8,1.8,0.8c0.4,0,0.8,0,1.3-0.1V15h-1.8L34.1,13.4
			L34.1,13.4z"/>
		<path id="XMLID_73_" class="st4" d="M41.9,15v3.6h-2V9.3h2.7c1.3,0,2.2,0.2,2.8,0.7s0.9,1.2,0.9,2.1c0,0.5-0.2,1-0.5,1.5
			c-0.3,0.4-0.7,0.8-1.3,1c1.4,2.1,2.3,3.4,2.7,4H45L43,15H41.9z M41.9,13.4h0.6c0.6,0,1.1-0.1,1.4-0.3c0.3-0.2,0.4-0.5,0.4-1
			c0-0.4-0.2-0.8-0.5-0.9s-0.8-0.3-1.4-0.3h-0.6L41.9,13.4L41.9,13.4z"/>
	</g>
</g>
</svg>
