<?xml version="1.0" encoding="utf-8"?>
<!-- Generator: Adobe Illustrator 19.0.0, SVG Export Plug-In . SVG Version: 6.00 Build 0)  -->
<svg version="1.1" id="Capa_2" xmlns="http://www.w3.org/2000/svg" xmlns:xlink="http://www.w3.org/1999/xlink" x="0px" y="0px"
	 viewBox="-466 268 26 26" style="enable-background:new -466 268 26 26;" xml:space="preserve">
<style type="text/css">
	.st0{fill:#FFFFFF;}
</style>
<g id="XMLID_119_">
	<g id="XMLID_120_">
		<g id="XMLID_121_">
			<path id="XMLID_135_" class="st0" d="M-444,279.4h-3.3c-0.7,0-1.4,0.2-2,0.5c-0.5,0.3-1,0.7-1.3,1.2c-0.2,0-0.5-0.1-0.7-0.1h-3.3
				c-0.2,0-0.5,0-0.7,0.1c-0.3-0.5-0.8-0.9-1.3-1.2c-0.6-0.3-1.3-0.5-2-0.5h-3.4c-2.2,0-4,1.8-4,4v2.3c0,0.2,0.2,0.4,0.4,0.4h6.9
				v1.2c0,0.2,0.2,0.4,0.4,0.4h10.5c0.2,0,0.4-0.2,0.4-0.4v-1.2h6.9c0.2,0,0.4-0.2,0.4-0.4v-2.3C-440,281.2-441.8,279.4-444,279.4z
				 M-458.7,284.7L-458.7,284.7c0,0.1,0,0.2,0,0.2v0.2v0.2h-6.4v-1.8c0-1.7,1.4-3.2,3.2-3.2h3.3c0.5,0,1.1,0.1,1.5,0.4
				c0.3,0.2,0.6,0.4,0.8,0.7C-457.6,282-458.5,283.2-458.7,284.7z M-448.2,285.1v1.8h-9.6V285v-0.1c0-0.1,0-0.1,0-0.2v-0.1v-0.1
				v-0.1l0,0l0,0v-0.1v-0.1v-0.1V284c0.4-1.3,1.6-2.2,3-2.2h0.1h3.3c1.6,0,2.9,1.2,3.1,2.8c0,0.1,0,0.1,0,0.2
				C-448.2,284.9-448.2,285-448.2,285.1z M-440.9,285.3h-6.4V285v-0.1v-0.1v-0.1l0,0v-0.1v-0.1l0,0l0,0l0,0l0,0l0,0l0,0l0,0l0,0l0,0
				l0,0v-0.1l0,0l0,0l0,0v-0.1l0,0l0,0l0,0l0,0l0,0v-0.1c-0.4-1-1.2-1.9-2.2-2.3c0.2-0.3,0.4-0.5,0.6-0.7c0.5-0.3,1-0.4,1.5-0.4h3.4
				c1.7,0,3.2,1.4,3.2,3.2v1.3H-440.9z"/>
		</g>
	</g>
</g>
<g id="XMLID_114_">
	<g id="XMLID_115_">
		<g id="XMLID_116_">
			<path id="XMLID_134_" class="st0" d="M-458.1,273.5c-0.6-0.6-1.4-0.9-2.2-0.9c-1.7,0-3,1.4-3,3c0,1.7,1.4,3,3,3c1.7,0,3-1.4,3-3
				C-457.3,274.8-457.6,274.1-458.1,273.5z M-458.8,277.2c-0.8,0.8-2.2,0.8-3,0c-0.9-0.9-0.9-2.2,0-3.1c0.9-0.9,2.2-0.9,3.1,0
				c0.4,0.4,0.6,1,0.6,1.5C-458.1,276.2-458.4,276.8-458.8,277.2z"/>
		</g>
	</g>
</g>
<g id="XMLID_109_">
	<g id="XMLID_110_">
		<g id="XMLID_111_">
			<path id="XMLID_133_" class="st0" d="M-445.7,272.6c-1.7,0-3,1.4-3,3c0,0.8,0.3,1.6,0.9,2.2c0.6,0.6,1.3,0.9,2.2,0.9
				c1.7,0,3-1.4,3-3C-442.6,274-444,272.6-445.7,272.6z M-444.1,277.2c-0.9,0.9-2.2,0.9-3.1,0c-0.4-0.4-0.6-1-0.6-1.5
				c0-0.6,0.2-1.1,0.6-1.5c0.9-0.9,2.2-0.9,3.1,0C-443.3,274.9-443.3,276.3-444.1,277.2z"/>
		</g>
	</g>
</g>
<g id="XMLID_104_">
	<g id="XMLID_105_">
		<g id="XMLID_106_">
			<path id="XMLID_92_" class="st0" d="M-450.8,275.1c-0.6-0.6-1.3-0.9-2.1-0.9c-0.8,0-1.6,0.3-2.2,0.9c-1.2,1.2-1.2,3.1,0,4.3
				c1.2,1.2,3.1,1.2,4.3,0C-449.6,278.2-449.7,276.3-450.8,275.1z M-453,279.4c-1.2,0-2.2-1-2.2-2.2c0-1.2,1-2.2,2.2-2.2
				c0.6,0,1.1,0.2,1.5,0.6s0.6,1,0.6,1.5C-450.8,278.5-451.8,279.4-453,279.4z"/>
		</g>
	</g>
</g>
</svg>
