<?xml version="1.0" encoding="utf-8"?>
<!-- Generator: Adobe Illustrator 19.0.0, SVG Export Plug-In . SVG Version: 6.00 Build 0)  -->
<svg version="1.1" id="Capa_2" xmlns="http://www.w3.org/2000/svg" xmlns:xlink="http://www.w3.org/1999/xlink" x="0px" y="0px"
	 viewBox="-466 268 26 26" style="enable-background:new -466 268 26 26;" xml:space="preserve">
<style type="text/css">
	.st0{fill:#FFFFFF;}
</style>
<g id="XMLID_128_">
	<path id="XMLID_130_" class="st0" d="M-446,287.7h-4.8c-0.3,0-0.5-0.2-0.5-0.5v-5.5h-3.5v5.5c0,0.3-0.2,0.5-0.5,0.5h-4.7
		c-0.3,0-0.5-0.2-0.5-0.5V276c0-0.1,0.1-0.3,0.2-0.4l7-6.2c0.2-0.2,0.5-0.2,0.7,0l7,6.2c0.1,0.1,0.2,0.2,0.2,0.4v11.2
		C-445.5,287.4-445.7,287.7-446,287.7z M-450.2,286.7h3.8v-10.5l-6.6-5.8l-6.5,5.8v10.5h3.8v-5.6c0-0.3,0.2-0.5,0.5-0.5h4.5
		c0.3,0,0.5,0.2,0.5,0.5V286.7z"/>
</g>
<g id="XMLID_103_">
	<path id="XMLID_129_" class="st0" d="M-461.9,278.3c-0.1,0-0.3-0.1-0.4-0.2c-0.2-0.2-0.2-0.5,0-0.7l1.9-1.8c0.2-0.2,0.5-0.2,0.7,0
		c0.2,0.2,0.2,0.5,0,0.7l-1.9,1.8C-461.7,278.2-461.8,278.3-461.9,278.3z"/>
</g>
<g id="XMLID_127_">
	<path id="XMLID_126_" class="st0" d="M-444.1,278.3c-0.1,0-0.2,0-0.3-0.1l-1.9-1.8c-0.2-0.2-0.2-0.5,0-0.7c0.2-0.2,0.5-0.2,0.7,0
		l1.9,1.8c0.2,0.2,0.2,0.5,0,0.7C-443.8,278.2-443.9,278.3-444.1,278.3z"/>
</g>
</svg>
