<?xml version="1.0" encoding="utf-8"?>
<!-- Generator: Adobe Illustrator 19.0.0, SVG Export Plug-In . SVG Version: 6.00 Build 0)  -->
<svg version="1.1" id="Capa_2" xmlns="http://www.w3.org/2000/svg" xmlns:xlink="http://www.w3.org/1999/xlink" x="0px" y="0px"
	 viewBox="0 0 26 26" style="enable-background:new 0 0 26 26;" xml:space="preserve">
<style type="text/css">
	.st0{fill:#FFFFFF;}
</style>
<g id="XMLID_4753_">
	<path id="XMLID_206_" class="st0" d="M15.5,22.2c-0.1,0-0.3-0.1-0.3-0.2c-0.5-0.9-1.4-1.4-2.5-1.4s-1.9,0.5-2.5,1.4
		c-0.1,0.1-0.2,0.2-0.3,0.2c-0.1,0-0.1,0-0.2-0.1c-0.1-0.1-0.1-0.1-0.2-0.2c0-0.1,0-0.2,0-0.3c0.3-0.4,0.6-0.8,1-1.1l0.2-0.1l-0.2,0
		c-0.5-0.1-1-0.3-1.5-0.5l-1.8,0.9c-0.1,0-0.1,0-0.2,0c-0.1,0-0.3-0.1-0.3-0.2c0-0.1-0.1-0.2,0-0.3c0-0.1,0.1-0.2,0.2-0.2l1.2-0.6
		L8,19.4c-0.7-0.4-1.3-0.8-1.8-1.3L3.7,18c-0.1,0-0.2,0-0.3-0.1c-0.1-0.1-0.1-0.2-0.1-0.3c0-0.2,0.2-0.4,0.4-0.4l1.7,0l-0.1-0.2
		c-0.5-0.5-0.8-1.1-1.2-1.7l-2.6-0.9c-0.2-0.1-0.3-0.3-0.2-0.5c0.1-0.2,0.2-0.3,0.4-0.3c0,0,0.1,0,0.1,0l1.9,0.6l-0.1-0.2
		c-0.3-0.7-0.4-1.4-0.5-2.1l-2.1-1.7c-0.1-0.1-0.1-0.2-0.1-0.3c0-0.1,0-0.2,0.1-0.3C0.9,9.9,1,9.9,1.2,9.9c0.1,0,0.2,0,0.2,0.1
		l1.5,1.2l0-0.3c0-0.7,0.1-1.3,0.2-2L1.9,6.9C1.9,6.8,1.8,6.7,1.9,6.6c0-0.1,0.1-0.2,0.2-0.2c0.1,0,0.1-0.1,0.2-0.1
		c0.1,0,0.2,0.1,0.3,0.2l0.8,1.3l0.1-0.2c0.1-0.2,0.1-0.4,0.2-0.5c0.2-0.5,0.4-1,0.7-1.4L4.1,4.4c0-0.1,0-0.2,0.1-0.3
		s0.1-0.1,0.2-0.2c0,0,0,0,0,0c0.2,0,0.4,0.1,0.4,0.3L5,4.8l0.1-0.1c0.2-0.3,0.4-0.5,0.7-0.7C5.9,3.8,5.9,3.8,6,3.8s0.2,0,0.3,0.1
		C6.4,4,6.4,4.1,6.4,4.2s0,0.2-0.1,0.3C6.1,4.7,5.9,4.9,5.7,5.2L5.5,5.3c0,0,0.7,0,0.7,0c0.2,0,0.4,0.2,0.4,0.4c0,0.1,0,0.2-0.1,0.3
		C6.4,6,6.3,6,6.2,6L5,6.1C4.6,6.7,4.4,7.3,4.2,7.9L4.1,8.1l1.5-0.6c0,0,0.1,0,0.1,0c0.2,0,0.3,0.1,0.3,0.2c0,0.1,0,0.2,0,0.3
		C6,8,6,8.1,5.9,8.1L3.9,9c-0.2,0.6-0.2,1.2-0.2,1.8l0,0.4l1.5-1.4c0.1-0.1,0.2-0.1,0.3-0.1c0.1,0,0.2,0,0.3,0.1
		C5.8,9.8,5.8,9.9,5.8,10s0,0.2-0.1,0.3l-1.9,1.8c0.1,0.7,0.2,1.3,0.5,1.9l0.1,0.2l0.9-1.9c0.1-0.1,0.2-0.2,0.3-0.2
		c0.1,0,0.1,0,0.2,0C6,12.3,6.1,12.5,6,12.7l-1.2,2.4c0.3,0.7,0.7,1.2,1.1,1.7L6,16.9l0.2-1.8c0-0.2,0.2-0.3,0.4-0.3
		c0.1,0,0.2,0.1,0.3,0.1C7,14.9,7,15,7,15.1l-0.3,2.4c0.5,0.5,1.1,0.9,1.6,1.2l0.2,0.1l-0.3-1.4c0-0.1,0-0.2,0-0.3s0.1-0.1,0.2-0.2
		c0,0,0,0,0,0c0.2,0,0.4,0.1,0.4,0.3l0.5,1.9c1.1,0.5,2.2,0.7,3.3,0.7s2.2-0.2,3.3-0.6l0.5-2c0-0.2,0.2-0.3,0.4-0.3
		c0.2,0,0.3,0.1,0.3,0.2s0.1,0.2,0,0.3l-0.3,1.4l0.2-0.1c0.6-0.3,1.1-0.7,1.6-1.1l-0.2-2.5c0-0.1,0-0.2,0.1-0.3
		c0.1-0.1,0.2-0.1,0.3-0.1c0,0,0,0,0,0c0.2,0,0.4,0.1,0.4,0.3l0.2,1.8l0.1-0.2c0.4-0.5,0.8-1,1.1-1.6l-1.2-2.4
		c-0.1-0.2,0-0.4,0.2-0.5c0.1,0,0.1,0,0.2,0c0.1,0,0.3,0.1,0.3,0.2l0.9,1.9l0.1-0.2c0.2-0.6,0.4-1.2,0.5-1.9l-1.9-1.9
		c-0.1-0.1-0.1-0.2-0.1-0.3c0-0.1,0-0.2,0.1-0.3c0.1-0.1,0.2-0.1,0.3-0.1c0.1,0,0.2,0,0.3,0.1l1.5,1.4l0-0.4c0-0.6-0.1-1.2-0.2-1.8
		l-2-0.9c-0.1,0-0.2-0.1-0.2-0.2c0-0.1,0-0.2,0-0.3c0.1-0.1,0.2-0.2,0.3-0.2c0.1,0,0.1,0,0.1,0l1.5,0.6l-0.1-0.2
		c-0.2-0.6-0.5-1.2-0.8-1.8L19.1,6c-0.2,0-0.4-0.2-0.4-0.4c0-0.2,0.2-0.4,0.4-0.4l0.7,0l-0.1-0.2c-0.2-0.2-0.4-0.5-0.6-0.7
		C19,4.4,19,4.3,19,4.2s0-0.2,0.1-0.3c0.1-0.1,0.2-0.1,0.3-0.1s0.2,0,0.3,0.1c0.2,0.2,0.5,0.5,0.7,0.7l0.1,0.1l0.1-0.6
		c0-0.2,0.2-0.3,0.4-0.3c0.2,0,0.3,0.1,0.3,0.2s0.1,0.2,0.1,0.3L21,5.6c0.3,0.5,0.5,1,0.7,1.5c0.1,0.2,0.1,0.4,0.2,0.5L22,7.8
		l0.8-1.3c0.1-0.1,0.2-0.2,0.3-0.2c0.1,0,0.1,0,0.2,0.1c0.1,0.1,0.1,0.1,0.2,0.2c0,0.1,0,0.2-0.1,0.3l-1.2,1.8
		c0.1,0.7,0.2,1.4,0.2,2.1V11l0.1,0L24,10c0.1-0.1,0.1-0.1,0.2-0.1c0.1,0,0.2,0.1,0.3,0.1c0.1,0.1,0.1,0.2,0.1,0.3
		c0,0.1-0.1,0.2-0.1,0.3l-2.1,1.6c-0.1,0.8-0.3,1.5-0.6,2.1l-0.1,0.2l1.9-0.6c0,0,0.1,0,0.1,0c0.2,0,0.3,0.1,0.4,0.3
		c0.1,0.2,0,0.4-0.2,0.5l-2.5,0.9c-0.4,0.7-0.8,1.2-1.2,1.8L20,17.3l1.7,0c0.2,0,0.4,0.2,0.4,0.4c0,0.1,0,0.2-0.1,0.3
		C21.9,18,21.8,18,21.7,18l-2.4,0c-0.6,0.5-1.2,1-1.9,1.3l-0.2,0.1l1.2,0.6c0.1,0,0.2,0.1,0.2,0.2c0,0.1,0,0.2,0,0.3
		c-0.1,0.1-0.2,0.2-0.3,0.2c-0.1,0-0.1,0-0.2,0l-1.7-0.9c-0.6,0.2-1.1,0.3-1.6,0.5l-0.2,0l0.2,0.1c0.4,0.3,0.7,0.7,1,1.1
		c0.1,0.1,0.1,0.2,0,0.3c0,0.1-0.1,0.2-0.2,0.2C15.6,22.2,15.5,22.2,15.5,22.2z"/>
</g>
<g id="XMLID_4739_">
	<g id="XMLID_5201_">
		<path id="XMLID_137_" class="st0" d="M12.7,17.1c-0.3,0-0.5-0.1-0.7-0.3l-5.1-5.1c-0.4-0.4-0.4-1,0-1.4L12,5.2
			c0.4-0.4,1-0.4,1.4,0l5.1,5.1c0.4,0.4,0.4,1,0,1.4l-5.1,5.1C13.2,17,12.9,17.1,12.7,17.1z M12.7,5.9L7.6,11l5.1,5.1l-0.4,0.4
			l0.4-0.4c0,0,0,0,0,0l5.1-5.1L12.7,5.9z"/>
	</g>
</g>
</svg>
