<?xml version="1.0" encoding="utf-8"?>
<!-- Generator: Adobe Illustrator 19.0.0, SVG Export Plug-In . SVG Version: 6.00 Build 0)  -->
<svg version="1.1" id="Capa_1" xmlns="http://www.w3.org/2000/svg" xmlns:xlink="http://www.w3.org/1999/xlink" x="0px" y="0px"
	 viewBox="0 0 10 50" style="enable-background:new 0 0 10 50;" xml:space="preserve">
<style type="text/css">
	.st0{fill:#162426;}
</style>
<g id="XMLID_1_">
	<path id="XMLID_2_" class="st0" d="M6,47.3h2.9v1.6H1.3v-2.2c0-1,0.2-1.8,0.6-2.3c0.4-0.5,0.9-0.7,1.7-0.7c0.4,0,0.8,0.1,1.2,0.4
		c0.3,0.2,0.6,0.6,0.8,1c1.7-1.1,2.8-1.9,3.3-2.2v1.8L6,46.4V47.3z M4.7,47.3v-0.5c0-0.5-0.1-0.9-0.3-1.1c-0.2-0.2-0.4-0.4-0.8-0.4
		c-0.4,0-0.6,0.1-0.8,0.4c-0.2,0.2-0.2,0.6-0.2,1.2v0.5H4.7z"/>
	<path id="XMLID_6_" class="st0" d="M8.9,37.2l-1.8,0.6v2.8l1.8,0.6v1.7l-7.6-2.7v-2l7.6-2.7V37.2z M5.7,38.2C4.1,38.7,3.2,39,3,39
		c-0.2,0.1-0.4,0.1-0.5,0.1c0.4,0.1,1.5,0.4,3.3,1V38.2z"/>
	<path id="XMLID_9_" class="st0" d="M8.9,27.8v2l-5.8,3.3v0c1-0.1,1.7-0.1,2.2-0.1h3.6v1.4H1.3v-2L7,29.2v0c-1,0.1-1.7,0.1-2.1,0.1
		H1.3v-1.5H8.9z"/>
	<path id="XMLID_11_" class="st0" d="M8.9,19.8v1.8l-3.2,2l0.5,0.7h2.7v1.6H1.3v-1.6h3.5l-0.9-0.6l-2.6-2.1v-1.8l3.4,2.7L8.9,19.8z"
		/>
	<path id="XMLID_13_" class="st0" d="M8.9,18.8H1.3v-1.6h7.6V18.8z"/>
	<path id="XMLID_15_" class="st0" d="M8.9,8.5v2l-5.8,3.3v0c1-0.1,1.7-0.1,2.2-0.1h3.6v1.4H1.3v-2L7,10v0C6,10,5.3,10,4.9,10H1.3
		V8.5H8.9z"/>
	<path id="XMLID_17_" class="st0" d="M4.6,3.7v-3h3.9c0.2,0.5,0.3,0.9,0.3,1.4C9,2.5,9,3,9,3.4c0,1.1-0.3,2-1,2.6
		C7.3,6.7,6.4,7,5.1,7C3.9,7,2.9,6.6,2.2,5.9c-0.7-0.7-1-1.7-1-2.9c0-0.8,0.2-1.5,0.5-2.3L3,1.3C2.7,1.8,2.5,2.4,2.5,3
		c0,0.7,0.2,1.3,0.7,1.7c0.5,0.4,1.1,0.6,1.9,0.6C6,5.3,6.6,5.1,7,4.8C7.5,4.5,7.7,4,7.7,3.3c0-0.3,0-0.7-0.1-1H6v1.4H4.6z"/>
</g>
</svg>
